<svg xmlns="http://www.w3.org/2000/svg" xmlns:xlink="http://www.w3.org/1999/xlink" width="200" zoomAndPan="magnify" viewBox="0 0 150 52.499999" height="70" preserveAspectRatio="xMidYMid meet" version="1.0"><defs><g/><clipPath id="617ff45382"><path d="M 61.917969 36.050781 L 67 36.050781 L 67 42 L 61.917969 42 Z M 61.917969 36.050781 " clip-rule="nonzero"/></clipPath><clipPath id="9f6ecd2f10"><path d="M 61.917969 36.050781 L 70.832031 36.050781 L 70.832031 49.421875 L 61.917969 49.421875 Z M 61.917969 36.050781 " clip-rule="nonzero"/></clipPath></defs><path stroke-linecap="butt" transform="matrix(0.739458, 0, 0, 0.742924, 2.195794, 42.001006)" fill="none" stroke-linejoin="miter" d="M -0.000651613 0.49815 L 80.389701 0.49815 " stroke="#5e17eb" stroke-width="1" stroke-opacity="1" stroke-miterlimit="4"/><path stroke-linecap="butt" transform="matrix(0.745838, 0, 0, 0.742924, 71.079619, 42.001006)" fill="none" stroke-linejoin="miter" d="M -0.00200299 0.49815 L 103.598958 0.49815 " stroke="#5e17eb" stroke-width="1" stroke-opacity="1" stroke-miterlimit="4"/><g clip-path="url(#617ff45382)"><path fill="#cb6ce6" d="M 65.757812 41.09375 L 65.757812 39.917969 C 65.757812 39.769531 65.902344 39.640625 66.113281 39.578125 L 66.113281 36.054688 C 63.773438 36.183594 61.921875 38.023438 61.921875 40.277344 L 61.921875 41.09375 Z M 65.757812 41.09375 " fill-opacity="1" fill-rule="nonzero"/></g><g clip-path="url(#9f6ecd2f10)"><path fill="#cb6ce6" d="M 66.5625 36.050781 L 66.5625 39.5625 C 66.8125 39.609375 66.992188 39.75 66.992188 39.917969 L 66.992188 41.09375 L 70.800781 41.09375 L 70.800781 41.554688 L 66.992188 41.554688 L 66.992188 42.464844 C 66.992188 42.671875 66.71875 42.839844 66.375 42.839844 C 66.035156 42.839844 65.757812 42.671875 65.757812 42.464844 L 65.757812 41.554688 L 61.921875 41.554688 L 61.921875 45.191406 C 61.921875 47.527344 63.914062 49.421875 66.375 49.421875 C 68.835938 49.421875 70.828125 47.527344 70.828125 45.191406 L 70.828125 40.277344 C 70.828125 38 68.9375 36.144531 66.5625 36.050781 Z M 66.5625 36.050781 " fill-opacity="1" fill-rule="nonzero"/></g><path fill="#cb6ce6" d="M 66.050781 40.152344 C 66.050781 39.984375 66.195312 39.847656 66.375 39.847656 C 66.554688 39.847656 66.699219 39.984375 66.699219 40.152344 L 66.699219 42.230469 C 66.699219 42.398438 66.554688 42.535156 66.375 42.535156 C 66.195312 42.535156 66.050781 42.398438 66.050781 42.230469 Z M 66.050781 40.152344 " fill-opacity="1" fill-rule="nonzero"/><g fill="#cb6ce6" fill-opacity="1"><g transform="translate(9.340208, 31.149126)"><g><path d="M 12.777344 -16.949219 C 12.828125 -17.980469 12.273438 -18.8125 11.21875 -18.8125 C 9.507812 -18.8125 8.476562 -16.925781 8.476562 -15.164062 C 8.476562 -14.9375 8.5 -14.738281 8.527344 -14.511719 C 8.199219 -14.488281 7.847656 -14.460938 7.445312 -14.460938 C 4.578125 -14.460938 2.488281 -15.695312 1.257812 -18.257812 C 1.15625 -18.460938 0.980469 -18.5625 0.78125 -18.5625 C 0.578125 -18.5625 0.25 -18.410156 0.25 -18.058594 C 0.25 -17.957031 0.277344 -17.882812 0.300781 -17.804688 C 1.734375 -14.863281 4.175781 -13.40625 7.496094 -13.40625 C 7.949219 -13.40625 8.351562 -13.429688 8.726562 -13.457031 C 9.003906 -12.449219 9.457031 -11.417969 9.933594 -10.363281 C 10.664062 -8.753906 11.417969 -7.09375 11.417969 -5.355469 C 11.417969 -2.214844 9.128906 0.203125 5.808594 0.203125 C 3.117188 0.203125 1.054688 -1.558594 1.054688 -4.074219 C 1.054688 -6.464844 2.867188 -8.574219 5.082031 -8.574219 C 6.640625 -8.574219 7.671875 -7.21875 7.519531 -5.757812 C 7.496094 -5.433594 7.746094 -5.179688 8.074219 -5.179688 C 8.324219 -5.179688 8.5 -5.382812 8.550781 -5.558594 C 8.601562 -5.757812 8.601562 -5.910156 8.601562 -6.011719 C 8.601562 -7.949219 7.167969 -9.632812 5.082031 -9.632812 C 2.363281 -9.632812 0 -7.144531 0 -4.148438 C 0 -1.082031 2.390625 1.257812 5.734375 1.257812 C 9.53125 1.257812 12.472656 -1.410156 12.472656 -5.355469 C 12.472656 -7.292969 11.667969 -9.078125 10.890625 -10.789062 C 10.4375 -11.769531 10.007812 -12.726562 9.757812 -13.65625 C 11.621094 -14.234375 12.699219 -15.46875 12.777344 -16.949219 Z M 11.71875 -16.949219 C 11.71875 -16.546875 11.667969 -15.492188 9.582031 -14.710938 C 9.558594 -14.863281 9.558594 -15.039062 9.558594 -15.191406 C 9.558594 -16.324219 10.085938 -17.753906 11.117188 -17.753906 C 11.519531 -17.753906 11.71875 -17.480469 11.71875 -16.949219 Z M 11.71875 -16.949219 "/></g></g></g><g fill="#cb6ce6" fill-opacity="1"><g transform="translate(23.222455, 31.149126)"><g><path d="M 11.265625 -5.984375 C 11.191406 -6.011719 11.117188 -6.035156 11.039062 -6.035156 C 10.839844 -6.035156 10.664062 -5.910156 10.5625 -5.710938 L 10.539062 -5.632812 C 9.707031 -3.773438 8.5 -1.054688 6.941406 -1.054688 C 6.414062 -1.054688 6.1875 -1.359375 6.1875 -2.113281 C 6.1875 -3.21875 7.015625 -5.40625 7.921875 -7.949219 L 9.179688 -11.316406 C 9.304688 -11.621094 9.105469 -12.023438 8.703125 -12.023438 C 8.476562 -12.023438 8.273438 -11.894531 8.199219 -11.695312 C 8.074219 -11.367188 7.921875 -10.992188 7.769531 -10.5625 C 7.320312 -11.46875 6.539062 -11.894531 5.484375 -11.894531 C 2.464844 -11.894531 -0.0742188 -6.011719 -0.0742188 -2.714844 C -0.0742188 -1.207031 0.578125 0 1.988281 0 C 3.066406 0 4.125 -0.703125 5.128906 -2.113281 C 5.128906 -0.878906 5.734375 0 6.941406 0 C 9.203125 0 10.5625 -3.09375 11.519531 -5.207031 L 11.542969 -5.28125 C 11.570312 -5.355469 11.59375 -5.433594 11.59375 -5.507812 C 11.59375 -5.710938 11.46875 -5.886719 11.265625 -5.984375 Z M 1.960938 -1.054688 C 1.207031 -1.054688 0.980469 -1.785156 0.980469 -2.890625 C 1.03125 -5.382812 3.167969 -10.789062 5.484375 -10.839844 C 6.386719 -10.839844 7.042969 -10.160156 7.09375 -9.003906 L 6.488281 -7.394531 C 5.484375 -4.828125 4 -1.054688 1.960938 -1.054688 Z M 1.960938 -1.054688 "/></g></g></g><g fill="#cb6ce6" fill-opacity="1"><g transform="translate(33.3575, 31.149126)"><g><path d="M 10.386719 -5.984375 C 10.3125 -6.011719 10.234375 -6.035156 10.160156 -6.035156 C 9.960938 -6.035156 9.785156 -5.910156 9.683594 -5.710938 C 8.25 -2.464844 7.292969 -1.054688 6.0625 -1.054688 C 5.507812 -1.054688 5.304688 -1.484375 5.304688 -2.113281 C 5.332031 -2.539062 5.382812 -2.96875 5.53125 -3.496094 C 5.683594 -4.125 6.890625 -7.722656 7.21875 -8.550781 C 7.320312 -8.851562 7.191406 -9.179688 6.917969 -9.28125 C 6.640625 -9.382812 6.3125 -9.480469 5.960938 -9.582031 C 5.230469 -9.832031 4.375 -10.109375 3.671875 -10.460938 C 3.972656 -11.441406 4.074219 -11.667969 4.074219 -12.070312 C 4.074219 -13.078125 3.519531 -13.730469 2.617188 -13.730469 C 1.8125 -13.730469 1.082031 -13.128906 1.082031 -12.097656 C 1.082031 -11.167969 1.609375 -10.511719 2.363281 -9.984375 L 2.0625 -9.230469 L 0.0507812 -4.855469 C 0.0234375 -4.777344 0 -4.703125 0 -4.628906 C 0 -4.425781 0.125 -4.25 0.300781 -4.148438 C 0.378906 -4.125 0.453125 -4.097656 0.554688 -4.097656 C 0.730469 -4.097656 0.90625 -4.199219 1.007812 -4.402344 C 3.019531 -8.800781 3.195312 -9.15625 3.292969 -9.457031 C 3.847656 -9.179688 4.125 -9.078125 6.035156 -8.449219 C 5.808594 -7.898438 4.703125 -4.550781 4.5 -3.746094 C 4.324219 -3.117188 4.25 -2.617188 4.25 -2.113281 C 4.25 -0.878906 4.855469 0 6.035156 0 L 6.0625 0 C 7.769531 0 9.027344 -1.535156 10.664062 -5.28125 C 10.6875 -5.355469 10.714844 -5.433594 10.714844 -5.507812 C 10.714844 -5.710938 10.589844 -5.886719 10.386719 -5.984375 Z M 3.019531 -12.097656 C 3.019531 -11.84375 2.867188 -11.394531 2.742188 -11.039062 C 2.363281 -11.34375 2.136719 -11.796875 2.136719 -12.199219 C 2.136719 -12.472656 2.289062 -12.675781 2.617188 -12.675781 C 2.816406 -12.675781 3.019531 -12.523438 3.019531 -12.097656 Z M 3.019531 -12.097656 "/></g></g></g><g fill="#cb6ce6" fill-opacity="1"><g transform="translate(42.612336, 31.149126)"><g><path d="M 11.265625 -5.984375 C 11.191406 -6.011719 11.117188 -6.035156 11.039062 -6.035156 C 10.839844 -6.035156 10.664062 -5.910156 10.5625 -5.710938 L 10.539062 -5.632812 C 9.707031 -3.773438 8.5 -1.054688 6.941406 -1.054688 C 6.414062 -1.054688 6.1875 -1.359375 6.1875 -2.113281 C 6.1875 -3.21875 7.015625 -5.40625 7.921875 -7.949219 L 9.179688 -11.316406 C 9.304688 -11.621094 9.105469 -12.023438 8.703125 -12.023438 C 8.476562 -12.023438 8.273438 -11.894531 8.199219 -11.695312 C 8.074219 -11.367188 7.921875 -10.992188 7.769531 -10.5625 C 7.320312 -11.46875 6.539062 -11.894531 5.484375 -11.894531 C 2.464844 -11.894531 -0.0742188 -6.011719 -0.0742188 -2.714844 C -0.0742188 -1.207031 0.578125 0 1.988281 0 C 3.066406 0 4.125 -0.703125 5.128906 -2.113281 C 5.128906 -0.878906 5.734375 0 6.941406 0 C 9.203125 0 10.5625 -3.09375 11.519531 -5.207031 L 11.542969 -5.28125 C 11.570312 -5.355469 11.59375 -5.433594 11.59375 -5.507812 C 11.59375 -5.710938 11.46875 -5.886719 11.265625 -5.984375 Z M 1.960938 -1.054688 C 1.207031 -1.054688 0.980469 -1.785156 0.980469 -2.890625 C 1.03125 -5.382812 3.167969 -10.789062 5.484375 -10.839844 C 6.386719 -10.839844 7.042969 -10.160156 7.09375 -9.003906 L 6.488281 -7.394531 C 5.484375 -4.828125 4 -1.054688 1.960938 -1.054688 Z M 1.960938 -1.054688 "/></g></g></g><g fill="#cb6ce6" fill-opacity="1"><g transform="translate(52.747381, 31.149126)"><g><path d="M 11.167969 -5.984375 C 11.089844 -6.011719 11.015625 -6.035156 10.941406 -6.035156 C 10.738281 -6.035156 10.5625 -5.910156 10.460938 -5.710938 C 9.027344 -2.464844 8.046875 -1.054688 6.839844 -1.054688 C 6.3125 -1.054688 6.085938 -1.382812 6.085938 -2.113281 C 6.085938 -3.921875 8.046875 -7.671875 8.046875 -9.582031 C 8.046875 -10.914062 7.46875 -11.945312 5.683594 -11.945312 C 4.878906 -11.945312 4.125 -11.492188 3.394531 -10.765625 C 4.25 -13.152344 4.804688 -14.738281 5.03125 -15.390625 C 5.15625 -15.71875 4.902344 -16.097656 4.527344 -16.097656 C 4.300781 -16.097656 4.097656 -15.96875 4.023438 -15.769531 C 3.195312 -13.328125 1.03125 -7.34375 -1.359375 -0.703125 C -1.457031 -0.425781 -1.308594 -0.125 -1.03125 -0.0234375 C -0.753906 0.0507812 -0.453125 -0.0742188 -0.351562 -0.378906 C 1.886719 -6.515625 2.113281 -7.496094 3.695312 -9.507812 C 4.351562 -10.3125 5.054688 -10.890625 5.683594 -10.890625 C 6.664062 -10.890625 6.992188 -10.3125 6.992188 -9.582031 C 6.992188 -7.644531 5.03125 -4.425781 5.03125 -2.113281 C 5.03125 -0.878906 5.609375 0 6.839844 0 C 8.550781 0 9.734375 -1.484375 11.441406 -5.28125 C 11.46875 -5.355469 11.492188 -5.433594 11.492188 -5.484375 C 11.492188 -5.710938 11.367188 -5.886719 11.167969 -5.984375 Z M 11.167969 -5.984375 "/></g></g></g><g fill="#cb6ce6" fill-opacity="1"><g transform="translate(62.781835, 31.149126)"><g/></g></g><g fill="#cb6ce6" fill-opacity="1"><g transform="translate(70.326536, 31.149126)"><g><path d="M 12.171875 -16.523438 C 11.492188 -16.398438 10.738281 -16.273438 9.984375 -16.144531 C 6.3125 -15.566406 1.632812 -14.8125 1.632812 -11.039062 C 1.585938 -9.179688 2.84375 -7.671875 4.652344 -7.671875 C 4.929688 -7.671875 5.179688 -7.898438 5.179688 -8.171875 C 5.179688 -8.476562 4.980469 -8.726562 4.679688 -8.726562 C 3.320312 -8.878906 2.640625 -9.734375 2.691406 -10.992188 C 2.691406 -13.957031 6.964844 -14.613281 10.160156 -15.113281 C 10.6875 -15.191406 11.242188 -15.265625 11.769531 -15.367188 C 11.769531 -14.988281 8.574219 -5.382812 6.335938 0.957031 C 5.660156 1.132812 5.003906 1.257812 4.375 1.359375 C 1.960938 1.8125 0 2.164062 0 4.652344 C 0.0507812 6.210938 1.183594 7.117188 2.992188 7.117188 C 5.15625 7.066406 5.960938 5.257812 6.867188 2.742188 L 7.167969 1.835938 C 10.839844 0.828125 12.925781 -1.632812 14.511719 -5.257812 C 14.636719 -5.632812 14.359375 -6.011719 14.007812 -6.011719 C 13.808594 -6.011719 13.605469 -5.886719 13.53125 -5.683594 C 12.296875 -2.792969 10.285156 -0.203125 7.59375 0.578125 C 8.851562 -2.941406 11.972656 -12.347656 12.925781 -15.542969 C 14.710938 -16.019531 16.523438 -16.976562 16.523438 -18.160156 C 16.523438 -18.964844 15.917969 -19.515625 15.039062 -19.515625 C 13.757812 -19.515625 12.726562 -17.980469 12.171875 -16.523438 Z M 13.429688 -16.800781 C 13.832031 -17.65625 14.488281 -18.511719 15.039062 -18.511719 C 15.242188 -18.511719 15.390625 -18.359375 15.390625 -18.160156 C 15.390625 -17.753906 14.488281 -17.027344 13.429688 -16.800781 Z M 5.859375 2.390625 C 5.128906 4.425781 4.550781 6.011719 2.96875 6.0625 C 1.960938 6.0625 1.054688 5.683594 1.054688 4.628906 C 1.054688 2.96875 2.617188 2.765625 4.550781 2.414062 C 5.003906 2.339844 5.457031 2.238281 5.933594 2.136719 Z M 5.859375 2.390625 "/></g></g></g><g fill="#cb6ce6" fill-opacity="1"><g transform="translate(83.429164, 31.149126)"><g><path d="M 11.242188 -5.304688 C 11.394531 -5.660156 11.117188 -6.035156 10.738281 -6.035156 C 10.539062 -6.035156 10.335938 -5.910156 10.261719 -5.710938 C 9.382812 -3.621094 8.5 -2.664062 7.445312 -2.664062 C 6.867188 -2.664062 6.4375 -2.84375 6.160156 -3.195312 C 7.320312 -5.15625 8.125 -7.621094 8.125 -9.203125 C 8.125 -10.714844 7.269531 -11.84375 5.609375 -11.894531 C 4.351562 -11.894531 3.117188 -11.015625 2.0625 -9.253906 C 1.230469 -7.898438 -0.0742188 -5.457031 -0.0742188 -2.539062 C -0.0742188 -1.082031 0.476562 0 2.113281 0 C 3.320312 0 4.601562 -1.03125 5.53125 -2.289062 C 6.085938 -1.835938 6.738281 -1.609375 7.445312 -1.609375 C 8.953125 -1.609375 10.136719 -2.765625 11.242188 -5.304688 Z M 5.40625 -6.035156 C 5.15625 -6.035156 4.929688 -5.886719 4.878906 -5.632812 C 4.703125 -5.003906 4.652344 -3.898438 4.929688 -3.246094 C 4.097656 -2.0625 3.042969 -1.054688 2.113281 -1.054688 C 1.308594 -1.054688 1.007812 -1.683594 1.007812 -2.589844 C 1.007812 -5.179688 2.339844 -7.621094 2.992188 -8.703125 C 3.722656 -9.960938 4.628906 -10.839844 5.582031 -10.839844 C 6.4375 -10.839844 7.066406 -10.285156 7.066406 -9.230469 C 7.066406 -8.074219 6.589844 -6.335938 5.808594 -4.777344 C 5.835938 -4.953125 5.835938 -5.15625 5.910156 -5.355469 C 6.011719 -5.710938 5.757812 -6.035156 5.40625 -6.035156 Z M 5.40625 -6.035156 "/></g></g></g><g fill="#cb6ce6" fill-opacity="1"><g transform="translate(93.26242, 31.149126)"><g><path d="M 11.167969 -5.984375 C 11.089844 -6.011719 11.015625 -6.035156 10.941406 -6.035156 C 10.738281 -6.035156 10.5625 -5.910156 10.460938 -5.710938 C 9.027344 -2.464844 8.046875 -1.054688 6.839844 -1.054688 C 6.3125 -1.054688 6.085938 -1.382812 6.085938 -2.113281 C 6.085938 -3.921875 8.046875 -7.671875 8.046875 -9.582031 C 8.046875 -10.914062 7.46875 -11.945312 5.683594 -11.945312 C 4.878906 -11.945312 4.125 -11.492188 3.394531 -10.765625 C 4.25 -13.152344 4.804688 -14.738281 5.03125 -15.390625 C 5.15625 -15.71875 4.902344 -16.097656 4.527344 -16.097656 C 4.300781 -16.097656 4.097656 -15.96875 4.023438 -15.769531 C 3.195312 -13.328125 1.03125 -7.34375 -1.359375 -0.703125 C -1.457031 -0.425781 -1.308594 -0.125 -1.03125 -0.0234375 C -0.753906 0.0507812 -0.453125 -0.0742188 -0.351562 -0.378906 C 1.886719 -6.515625 2.113281 -7.496094 3.695312 -9.507812 C 4.351562 -10.3125 5.054688 -10.890625 5.683594 -10.890625 C 6.664062 -10.890625 6.992188 -10.3125 6.992188 -9.582031 C 6.992188 -7.644531 5.03125 -4.425781 5.03125 -2.113281 C 5.03125 -0.878906 5.609375 0 6.839844 0 C 8.550781 0 9.734375 -1.484375 11.441406 -5.28125 C 11.46875 -5.355469 11.492188 -5.433594 11.492188 -5.484375 C 11.492188 -5.710938 11.367188 -5.886719 11.167969 -5.984375 Z M 11.167969 -5.984375 "/></g></g></g><g fill="#cb6ce6" fill-opacity="1"><g transform="translate(103.296874, 31.149126)"><g><path d="M 11.167969 -5.984375 C 11.089844 -6.011719 11.015625 -6.035156 10.941406 -6.035156 C 10.738281 -6.035156 10.5625 -5.910156 10.460938 -5.710938 C 8.929688 -2.390625 8.023438 -1.054688 6.839844 -1.054688 C 6.3125 -1.054688 6.085938 -1.382812 6.085938 -2.113281 C 6.085938 -4.050781 8.046875 -7.34375 8.046875 -9.582031 C 8.046875 -10.914062 7.496094 -11.945312 5.683594 -11.945312 C 4.855469 -11.945312 4.074219 -11.46875 3.34375 -10.714844 L 3.546875 -11.21875 C 3.671875 -11.542969 3.421875 -11.921875 3.042969 -11.921875 C 2.816406 -11.921875 2.617188 -11.796875 2.539062 -11.570312 C 1.558594 -8.878906 -0.0234375 -4.324219 -1.332031 -0.703125 C -1.433594 -0.402344 -1.28125 -0.125 -1.007812 -0.0234375 C -0.730469 0.0507812 -0.425781 -0.0742188 -0.328125 -0.378906 L 1.433594 -5.355469 C 2.238281 -7.496094 4.148438 -10.890625 5.683594 -10.890625 C 6.664062 -10.890625 6.992188 -10.3125 6.992188 -9.582031 C 6.992188 -7.394531 5.03125 -4.476562 5.03125 -2.113281 C 5.03125 -0.878906 5.632812 0 6.839844 0 C 8.550781 0 9.734375 -1.484375 11.441406 -5.28125 C 11.46875 -5.355469 11.492188 -5.433594 11.492188 -5.507812 C 11.492188 -5.710938 11.367188 -5.886719 11.167969 -5.984375 Z M 11.167969 -5.984375 "/></g></g></g><g fill="#cb6ce6" fill-opacity="1"><g transform="translate(113.331328, 31.149126)"><g><path d="M 8.300781 -4.453125 C 8.273438 -6.160156 7.59375 -7.042969 6.289062 -9.457031 C 7.066406 -10.335938 7.695312 -11.441406 7.695312 -12.449219 C 7.644531 -13.179688 7.21875 -13.757812 6.488281 -13.757812 C 5.457031 -13.757812 4.652344 -12.652344 4.652344 -11.34375 C 4.652344 -10.765625 4.804688 -10.210938 5.03125 -9.683594 C 4.726562 -9.382812 4.476562 -9.105469 4.175781 -8.753906 C 4.097656 -8.652344 4.050781 -8.527344 4.050781 -8.425781 C 4.050781 -8.273438 4.097656 -8.097656 4.226562 -7.996094 C 4.324219 -7.898438 4.476562 -7.871094 4.601562 -7.871094 C 4.753906 -7.871094 4.902344 -7.949219 5.003906 -8.074219 C 5.15625 -8.273438 5.332031 -8.476562 5.507812 -8.652344 C 6.839844 -6.3125 7.21875 -5.582031 7.242188 -4.476562 C 7.191406 -2.390625 5.734375 -1.054688 3.695312 -1.054688 C 2.238281 -1.054688 0.957031 -2.136719 0.957031 -3.671875 C 1.054688 -5.207031 1.960938 -6.363281 3.34375 -6.363281 C 4 -6.363281 4.628906 -5.734375 4.679688 -4.878906 C 4.679688 -4.578125 4.902344 -4.351562 5.207031 -4.351562 C 5.507812 -4.351562 5.734375 -4.578125 5.734375 -4.878906 C 5.683594 -6.261719 4.628906 -7.417969 3.320312 -7.417969 C 1.308594 -7.417969 0.0507812 -5.933594 -0.101562 -3.671875 C -0.101562 -1.632812 1.609375 0 3.695312 0 C 6.238281 0 8.25 -1.734375 8.300781 -4.453125 Z M 5.835938 -10.5625 C 5.757812 -10.839844 5.710938 -11.089844 5.710938 -11.367188 C 5.710938 -11.71875 5.785156 -12.171875 6.085938 -12.472656 C 6.335938 -12.726562 6.613281 -12.800781 6.613281 -12.449219 C 6.613281 -11.894531 6.238281 -11.117188 5.835938 -10.5625 Z M 5.835938 -10.5625 "/></g></g></g><g fill="#cb6ce6" fill-opacity="1"><g transform="translate(123.013694, 31.149126)"><g><path d="M 11.242188 -5.304688 C 11.394531 -5.660156 11.117188 -6.035156 10.738281 -6.035156 C 10.539062 -6.035156 10.335938 -5.910156 10.261719 -5.710938 C 9.382812 -3.621094 8.5 -2.664062 7.445312 -2.664062 C 6.867188 -2.664062 6.4375 -2.84375 6.160156 -3.195312 C 7.320312 -5.15625 8.125 -7.621094 8.125 -9.203125 C 8.125 -10.714844 7.269531 -11.84375 5.609375 -11.894531 C 4.351562 -11.894531 3.117188 -11.015625 2.0625 -9.253906 C 1.230469 -7.898438 -0.0742188 -5.457031 -0.0742188 -2.539062 C -0.0742188 -1.082031 0.476562 0 2.113281 0 C 3.320312 0 4.601562 -1.03125 5.53125 -2.289062 C 6.085938 -1.835938 6.738281 -1.609375 7.445312 -1.609375 C 8.953125 -1.609375 10.136719 -2.765625 11.242188 -5.304688 Z M 5.40625 -6.035156 C 5.15625 -6.035156 4.929688 -5.886719 4.878906 -5.632812 C 4.703125 -5.003906 4.652344 -3.898438 4.929688 -3.246094 C 4.097656 -2.0625 3.042969 -1.054688 2.113281 -1.054688 C 1.308594 -1.054688 1.007812 -1.683594 1.007812 -2.589844 C 1.007812 -5.179688 2.339844 -7.621094 2.992188 -8.703125 C 3.722656 -9.960938 4.628906 -10.839844 5.582031 -10.839844 C 6.4375 -10.839844 7.066406 -10.285156 7.066406 -9.230469 C 7.066406 -8.074219 6.589844 -6.335938 5.808594 -4.777344 C 5.835938 -4.953125 5.835938 -5.15625 5.910156 -5.355469 C 6.011719 -5.710938 5.757812 -6.035156 5.40625 -6.035156 Z M 5.40625 -6.035156 "/></g></g></g><g fill="#cb6ce6" fill-opacity="1"><g transform="translate(132.846943, 31.149126)"><g><path d="M 11.167969 -5.984375 C 11.089844 -6.011719 11.015625 -6.035156 10.941406 -6.035156 C 10.738281 -6.035156 10.5625 -5.910156 10.460938 -5.710938 C 8.929688 -2.390625 8.023438 -1.054688 6.839844 -1.054688 C 6.3125 -1.054688 6.085938 -1.382812 6.085938 -2.113281 C 6.085938 -4.050781 8.046875 -7.34375 8.046875 -9.582031 C 8.046875 -10.914062 7.496094 -11.945312 5.683594 -11.945312 C 4.855469 -11.945312 4.074219 -11.46875 3.34375 -10.714844 L 3.546875 -11.21875 C 3.671875 -11.542969 3.421875 -11.921875 3.042969 -11.921875 C 2.816406 -11.921875 2.617188 -11.796875 2.539062 -11.570312 C 1.558594 -8.878906 -0.0234375 -4.324219 -1.332031 -0.703125 C -1.433594 -0.402344 -1.28125 -0.125 -1.007812 -0.0234375 C -0.730469 0.0507812 -0.425781 -0.0742188 -0.328125 -0.378906 L 1.433594 -5.355469 C 2.238281 -7.496094 4.148438 -10.890625 5.683594 -10.890625 C 6.664062 -10.890625 6.992188 -10.3125 6.992188 -9.582031 C 6.992188 -7.394531 5.03125 -4.476562 5.03125 -2.113281 C 5.03125 -0.878906 5.632812 0 6.839844 0 C 8.550781 0 9.734375 -1.484375 11.441406 -5.28125 C 11.46875 -5.355469 11.492188 -5.433594 11.492188 -5.507812 C 11.492188 -5.710938 11.367188 -5.886719 11.167969 -5.984375 Z M 11.167969 -5.984375 "/></g></g></g><path stroke-linecap="butt" transform="matrix(0.471591, 0, 0, 0.471591, 8.228659, 2.685323)" fill="none" stroke-linejoin="miter" d="M 27.097983 22.05433 C 27.19738 19.867582 26.029458 18.103273 23.784727 18.103273 C 20.156713 18.103273 17.969964 22.104029 17.969964 25.839725 C 17.969964 26.320147 18.019663 26.75087 18.085928 27.231292 C 17.381861 27.289274 16.636379 27.338973 15.783216 27.338973 C 9.703392 27.338973 5.28848 24.721501 2.671008 19.279479 C 2.447363 18.865322 2.082905 18.641677 1.652182 18.641677 C 1.221459 18.641677 0.533958 18.96472 0.533958 19.710202 C 0.533958 19.917281 0.583657 20.082943 0.641639 20.240323 C 3.681551 26.477526 8.850229 29.57542 15.89918 29.57542 C 16.851741 29.57542 17.704904 29.525721 18.500085 29.476022 C 19.088188 31.596506 20.049032 33.783254 21.067858 36.019701 C 22.616805 39.448921 24.215451 42.960971 24.215451 46.646968 C 24.215451 53.314894 19.361532 58.425591 12.320864 58.425591 C 6.613782 58.425591 2.240285 54.689895 2.240285 49.355554 C 2.240285 44.286274 6.083661 39.813379 10.763634 39.813379 C 14.076889 39.813379 16.263638 42.687628 15.948879 45.785522 C 15.89918 46.481305 16.429301 47.011426 17.125084 47.011426 C 17.655205 47.011426 18.019663 46.580703 18.135627 46.216245 C 18.243308 45.785522 18.243308 45.462479 18.243308 45.255401 C 18.243308 41.155247 15.195113 37.568648 10.763634 37.568648 C 5.015136 37.568648 0.00383735 42.861574 0.00383735 49.198175 C 0.00383735 55.708721 5.064835 60.670321 12.163484 60.670321 C 20.206412 60.670321 26.460181 55.021221 26.460181 46.646968 C 26.460181 42.530248 24.753855 38.744854 23.097227 35.125123 C 22.136383 33.037772 21.225238 31.008403 20.686834 29.045299 C 24.637891 27.819395 26.924037 25.201923 27.097983 22.05433 Z M 24.853252 22.05433 C 24.853252 22.907494 24.753855 25.152224 20.322376 26.800569 C 20.25611 26.477526 20.25611 26.113068 20.25611 25.790026 C 20.25611 23.396199 21.382617 20.348004 23.569366 20.348004 C 24.422529 20.348004 24.853252 20.936107 24.853252 22.05433 Z M 53.330682 45.3051 C 53.173302 45.255401 52.999356 45.197419 52.85026 45.197419 C 52.419537 45.197419 52.055078 45.462479 51.831434 45.893202 L 51.781735 46.050582 C 50.02571 50.001639 47.457937 55.75842 44.152964 55.75842 C 43.026458 55.75842 42.562602 55.120618 42.562602 53.521973 C 42.562602 51.177845 44.318627 46.531004 46.232032 41.155247 L 48.899203 34.006899 C 49.172546 33.369097 48.741823 32.507651 47.88866 32.507651 C 47.408238 32.507651 46.985798 32.780994 46.820135 33.195151 C 46.555075 33.899218 46.232032 34.694399 45.917273 35.605545 C 44.956429 33.675573 43.299801 32.780994 41.063354 32.780994 C 34.660488 32.780994 29.284731 45.255401 29.284731 52.246369 C 29.284731 55.435378 30.659732 58.003151 33.658228 58.003151 C 35.944374 58.003151 38.189105 56.503903 40.317871 53.521973 C 40.317871 56.139444 41.601758 58.003151 44.152964 58.003151 C 48.957185 58.003151 51.831434 51.434622 53.860803 46.961727 L 53.918785 46.804348 C 53.968483 46.646968 54.018182 46.481305 54.018182 46.323926 C 54.018182 45.893202 53.761405 45.528744 53.330682 45.3051 Z M 33.591963 55.75842 C 32.001601 55.75842 31.521179 54.209473 31.521179 51.865345 C 31.620576 46.580703 36.151453 35.125123 41.063354 35.017442 C 42.976759 35.017442 44.368326 36.450425 44.476007 38.910517 L 43.200404 42.32317 C 41.063354 47.765192 37.915761 55.75842 33.591963 55.75842 Z M 72.961719 45.3051 C 72.787774 45.255401 72.630394 45.197419 72.473014 45.197419 C 72.050574 45.197419 71.66955 45.462479 71.462471 45.893202 C 68.414277 52.77649 66.393191 55.75842 63.775719 55.75842 C 62.607797 55.75842 62.177073 54.847275 62.177073 53.521973 C 62.226772 52.610828 62.342736 51.707965 62.657495 50.589742 C 62.988821 49.247873 65.540028 41.635669 66.235811 39.863078 C 66.451173 39.225276 66.177829 38.537776 65.589726 38.330697 C 65.001624 38.107052 64.314123 37.899974 63.568641 37.676329 C 62.019694 37.137925 60.21397 36.558105 58.714722 35.812623 C 59.352523 33.733555 59.576168 33.24485 59.576168 32.39997 C 59.576168 30.271204 58.391679 28.887919 56.478274 28.887919 C 54.771948 28.887919 53.223001 30.163523 53.223001 32.350271 C 53.223001 34.313375 54.341225 35.713225 55.93987 36.831449 L 55.302069 38.430095 L 51.036252 47.698926 C 50.97827 47.872872 50.928572 48.030252 50.928572 48.179349 C 50.928572 48.610072 51.185349 48.991096 51.566373 49.198175 C 51.723753 49.247873 51.889416 49.305855 52.096494 49.305855 C 52.477518 49.305855 52.841977 49.090494 53.065621 48.668054 C 57.331438 39.332957 57.695896 38.587474 57.91954 37.949673 C 59.095746 38.537776 59.675566 38.744854 63.72602 40.086722 C 63.245598 41.254645 60.90147 48.353294 60.470747 50.059621 C 60.106289 51.384923 59.940626 52.453448 59.940626 53.521973 C 59.940626 56.139444 61.224513 58.003151 63.72602 58.003151 L 63.775719 58.003151 C 67.412017 58.003151 70.070904 54.747877 73.541539 46.804348 C 73.599521 46.646968 73.64922 46.481305 73.64922 46.323926 C 73.64922 45.893202 73.375876 45.528744 72.961719 45.3051 Z M 57.331438 32.350271 C 57.331438 32.880392 57.008395 33.849519 56.735052 34.586719 C 55.93987 33.948917 55.459448 32.988073 55.459448 32.126626 C 55.459448 31.546807 55.782491 31.124367 56.478274 31.124367 C 56.900714 31.124367 57.331438 31.439126 57.331438 32.350271 Z M 94.44818 45.3051 C 94.290801 45.255401 94.116855 45.197419 93.959475 45.197419 C 93.537035 45.197419 93.172577 45.462479 92.948932 45.893202 L 92.899233 46.050582 C 91.134925 50.001639 88.575435 55.75842 85.26218 55.75842 C 84.143956 55.75842 83.6801 55.120618 83.6801 53.521973 C 83.6801 51.177845 85.436126 46.531004 87.349531 41.155247 L 90.016701 34.006899 C 90.290045 33.369097 89.859322 32.507651 89.006158 32.507651 C 88.517453 32.507651 88.103296 32.780994 87.937634 33.195151 C 87.672573 33.899218 87.349531 34.694399 87.034771 35.605545 C 86.073927 33.675573 84.4173 32.780994 82.180852 32.780994 C 75.777987 32.780994 70.393947 45.255401 70.393947 52.246369 C 70.393947 55.435378 71.777231 58.003151 74.767444 58.003151 C 77.061873 58.003151 79.29832 56.503903 81.43537 53.521973 C 81.43537 56.139444 82.710973 58.003151 85.26218 58.003151 C 90.0664 58.003151 92.948932 51.434622 94.978301 46.961727 L 95.028 46.804348 C 95.085982 46.646968 95.135681 46.481305 95.135681 46.323926 C 95.135681 45.893202 94.87062 45.528744 94.44818 45.3051 Z M 74.709462 55.75842 C 73.119099 55.75842 72.638677 54.209473 72.638677 51.865345 C 72.738075 46.580703 77.268951 35.125123 82.180852 35.017442 C 84.094257 35.017442 85.485825 36.450425 85.593505 38.910517 L 84.317902 42.32317 C 82.180852 47.765192 79.024977 55.75842 74.709462 55.75842 Z M 115.727563 45.3051 C 115.5619 45.255401 115.40452 45.197419 115.247141 45.197419 C 114.816417 45.197419 114.435393 45.462479 114.228314 45.893202 C 111.18012 52.77649 109.109335 55.75842 106.549845 55.75842 C 105.431622 55.75842 104.942916 55.07092 104.942916 53.521973 C 104.942916 49.678597 109.109335 41.735067 109.109335 37.676329 C 109.109335 34.851779 107.891714 32.66503 104.098036 32.66503 C 102.39171 32.66503 100.793064 33.625875 99.244117 35.174821 C 101.058125 30.113824 102.226047 26.75087 102.706469 25.359302 C 102.979813 24.671802 102.449692 23.876621 101.637944 23.876621 C 101.157522 23.876621 100.743365 24.133398 100.569419 24.564121 C 98.813394 29.7328 94.232819 42.430851 89.163538 56.503903 C 88.948176 57.092005 89.271219 57.73809 89.859322 57.945169 C 90.439141 58.102548 91.076943 57.845771 91.300588 57.207969 C 96.038543 44.186876 96.518965 42.099525 99.881919 37.841992 C 101.273486 36.135665 102.756168 34.901478 104.098036 34.901478 C 106.168821 34.901478 106.872888 36.135665 106.872888 37.676329 C 106.872888 41.793049 102.706469 48.610072 102.706469 53.521973 C 102.706469 56.139444 103.932374 58.003151 106.549845 58.003151 C 110.17786 58.003151 112.679368 54.847275 116.315665 46.804348 C 116.365364 46.646968 116.415063 46.481305 116.415063 46.373624 C 116.415063 45.893202 116.141719 45.528744 115.727563 45.3051 Z M 155.122168 22.965476 C 153.697468 23.222253 152.09054 23.495596 150.491894 23.760657 C 142.705744 24.994844 132.782544 26.585207 132.782544 34.586719 C 132.683147 38.537776 135.350317 41.735067 139.193693 41.735067 C 139.773513 41.735067 140.311917 41.254645 140.311917 40.666542 C 140.311917 40.02874 139.881194 39.49862 139.243392 39.49862 C 136.36086 39.175577 134.919594 37.36157 135.027275 34.694399 C 135.027275 28.407497 144.097311 27.01593 150.864635 25.947405 C 151.991142 25.790026 153.159065 25.632646 154.277288 25.409001 C 154.277288 26.220749 147.509964 46.580703 142.755443 60.032519 C 141.32246 60.396978 139.930893 60.670321 138.605591 60.8774 C 133.470045 61.838244 129.320192 62.583726 129.320192 67.868368 C 129.427873 71.17334 131.829983 73.086745 135.665076 73.086745 C 140.253935 72.987348 141.960262 69.143972 143.873666 63.80963 L 144.511468 61.896226 C 152.297618 59.759176 156.729097 54.540799 160.083768 46.854046 C 160.357112 46.050582 159.777292 45.255401 159.015243 45.255401 C 158.601086 45.255401 158.170363 45.528744 158.012984 45.942901 C 155.395512 52.072424 151.129696 57.572427 145.422613 59.220772 C 148.098067 51.765947 154.708011 31.82015 156.729097 25.044543 C 160.514491 24.034 164.357867 21.996348 164.357867 19.503124 C 164.357867 17.796797 163.082264 16.620592 161.210275 16.620592 C 158.501689 16.620592 156.31494 19.867582 155.122168 22.965476 Z M 157.797622 22.377373 C 158.650785 20.563365 160.034069 18.741075 161.210275 18.741075 C 161.632715 18.741075 161.964041 19.072401 161.964041 19.503124 C 161.964041 20.348004 160.034069 21.896951 157.797622 22.377373 Z M 141.7449 63.064148 C 140.204236 67.387946 138.970049 70.742617 135.607094 70.850298 C 133.470045 70.850298 131.55664 70.055117 131.55664 67.818669 C 131.55664 64.290053 134.869895 63.875896 138.970049 63.113847 C 139.930893 62.96475 140.891737 62.749389 141.910563 62.534027 Z M 180.94071 46.754649 C 181.25547 45.9926 180.667367 45.197419 179.880469 45.197419 C 179.449745 45.197419 179.019022 45.462479 178.861643 45.893202 C 176.997937 50.316398 175.125947 52.345767 172.881217 52.345767 C 171.663595 52.345767 170.760733 51.973026 170.172631 51.227543 C 172.62444 47.061125 174.330766 41.842748 174.330766 38.479794 C 174.330766 35.282502 172.516759 32.880392 168.988142 32.780994 C 166.337538 32.780994 163.720066 34.644701 161.475335 38.380396 C 159.71931 41.254645 156.944459 46.423323 156.944459 52.610828 C 156.944459 55.708721 158.120664 58.003151 161.583016 58.003151 C 164.150789 58.003151 166.867658 55.816402 168.839045 53.140948 C 170.006968 54.110076 171.398535 54.590498 172.881217 54.590498 C 176.086791 54.590498 178.596582 52.130405 180.94071 46.754649 Z M 168.573985 45.197419 C 168.043864 45.197419 167.563442 45.528744 167.455761 46.050582 C 167.074737 47.39245 166.975339 49.728295 167.563442 51.128146 C 165.799134 53.62137 163.562686 55.75842 161.583016 55.75842 C 159.87669 55.75842 159.238888 54.433118 159.238888 52.503147 C 159.238888 47.011426 162.063438 41.842748 163.446722 39.548318 C 164.995669 36.881148 166.917357 35.017442 168.938443 35.017442 C 170.760733 35.017442 172.094319 36.193647 172.094319 38.430095 C 172.094319 40.881904 171.075493 44.559617 169.418865 47.872872 C 169.476847 47.491848 169.476847 47.061125 169.64251 46.646968 C 169.849588 45.893202 169.319467 45.197419 168.573985 45.197419 Z M 201.640273 45.3051 C 201.466327 45.255401 201.317231 45.197419 201.159851 45.197419 C 200.729128 45.197419 200.348103 45.462479 200.141025 45.893202 C 197.09283 52.77649 195.022045 55.75842 192.462556 55.75842 C 191.344332 55.75842 190.855627 55.07092 190.855627 53.521973 C 190.855627 49.678597 195.022045 41.735067 195.022045 37.676329 C 195.022045 34.851779 193.804424 32.66503 190.010747 32.66503 C 188.30442 32.66503 186.705775 33.625875 185.156828 35.174821 C 186.962552 30.113824 188.138758 26.75087 188.61918 25.359302 C 188.892523 24.671802 188.362402 23.876621 187.550655 23.876621 C 187.070233 23.876621 186.656076 24.133398 186.48213 24.564121 C 184.726105 29.7328 180.145529 42.430851 175.076248 56.503903 C 174.860887 57.092005 175.183929 57.73809 175.772032 57.945169 C 176.351852 58.102548 176.989653 57.845771 177.213298 57.207969 C 181.951253 44.186876 182.431675 42.099525 185.794629 37.841992 C 187.186197 36.135665 188.668878 34.901478 190.010747 34.901478 C 192.081531 34.901478 192.785598 36.135665 192.785598 37.676329 C 192.785598 41.793049 188.61918 48.610072 188.61918 53.521973 C 188.61918 56.139444 189.845084 58.003151 192.462556 58.003151 C 196.09057 58.003151 198.592078 54.847275 202.228376 46.804348 C 202.278075 46.646968 202.327773 46.481305 202.327773 46.373624 C 202.327773 45.893202 202.05443 45.528744 201.640273 45.3051 Z M 222.919655 45.3051 C 222.745709 45.255401 222.58833 45.197419 222.439233 45.197419 C 222.00851 45.197419 221.627486 45.462479 221.420407 45.893202 C 218.165134 52.93387 216.251729 55.75842 213.741938 55.75842 C 212.615431 55.75842 212.135009 55.07092 212.135009 53.521973 C 212.135009 49.421819 216.301428 42.430851 216.301428 37.676329 C 216.301428 34.851779 215.133505 32.66503 211.290129 32.66503 C 209.534104 32.66503 207.877476 33.675573 206.328529 35.282502 L 206.759252 34.213977 C 207.01603 33.526477 206.485909 32.714729 205.690728 32.714729 C 205.210306 32.714729 204.779582 32.988073 204.622203 33.468495 C 202.543135 39.175577 199.180181 48.81715 196.40533 56.503903 C 196.198251 57.141704 196.51301 57.73809 197.101113 57.945169 C 197.680933 58.102548 198.318735 57.845771 198.542379 57.207969 L 202.269791 46.646968 C 203.984401 42.099525 208.034856 34.901478 211.290129 34.901478 C 213.360914 34.901478 214.06498 36.135665 214.06498 37.676329 C 214.06498 42.32317 209.898562 48.510674 209.898562 53.521973 C 209.898562 56.139444 211.182448 58.003151 213.741938 58.003151 C 217.369953 58.003151 219.87146 54.847275 223.499475 46.804348 C 223.557457 46.646968 223.607156 46.481305 223.607156 46.323926 C 223.607156 45.893202 223.333812 45.528744 222.919655 45.3051 Z M 238.110931 48.560373 C 238.061232 44.924075 236.619966 43.068652 233.845115 37.949673 C 235.493459 36.085967 236.827044 33.733555 236.827044 31.596506 C 236.719364 30.055842 235.824785 28.821654 234.275838 28.821654 C 232.089089 28.821654 230.382763 31.182349 230.382763 33.948917 C 230.382763 35.174821 230.689239 36.351027 231.177944 37.469251 C 230.540143 38.107052 230.001739 38.695155 229.363937 39.448921 C 229.206557 39.655999 229.090593 39.912776 229.090593 40.136421 C 229.090593 40.45118 229.206557 40.823922 229.471618 41.031 C 229.686979 41.254645 230.001739 41.304344 230.275082 41.304344 C 230.589841 41.304344 230.912884 41.155247 231.119962 40.881904 C 231.451288 40.45118 231.815746 40.02874 232.188487 39.655999 C 235.013037 44.617599 235.824785 46.166546 235.874484 48.510674 C 235.75852 52.93387 232.668909 55.75842 228.353394 55.75842 C 225.263783 55.75842 222.538631 53.472274 222.538631 50.217001 C 222.753993 46.961727 224.667397 44.509918 227.607912 44.509918 C 228.991196 44.509918 230.324781 45.83522 230.432462 47.649228 C 230.432462 48.303596 230.912884 48.767451 231.550685 48.767451 C 232.188487 48.767451 232.668909 48.303596 232.668909 47.649228 C 232.569511 44.716997 230.324781 42.273471 227.558213 42.273471 C 223.284113 42.273471 220.616943 45.41278 220.302184 50.217001 C 220.302184 54.540799 223.921915 58.003151 228.353394 58.003151 C 233.737434 58.003151 237.994967 54.317154 238.110931 48.560373 Z M 232.884271 35.605545 C 232.726891 35.017442 232.61921 34.487321 232.61921 33.899218 C 232.61921 33.145452 232.77659 32.192892 233.414391 31.546807 C 233.944512 31.008403 234.532615 30.851023 234.532615 31.596506 C 234.532615 32.780994 233.737434 34.437622 232.884271 35.605545 Z M 264.882034 46.754649 C 265.196793 45.9926 264.60869 45.197419 263.813509 45.197419 C 263.382786 45.197419 262.952063 45.462479 262.802966 45.893202 C 260.93926 50.316398 259.058988 52.345767 256.82254 52.345767 C 255.596636 52.345767 254.702057 51.973026 254.113954 51.227543 C 256.565763 47.061125 258.27209 41.842748 258.27209 38.479794 C 258.27209 35.282502 256.458082 32.880392 252.929465 32.780994 C 250.270578 32.780994 247.653106 34.644701 245.416659 38.380396 C 243.660634 41.254645 240.885782 46.423323 240.885782 52.610828 C 240.885782 55.708721 242.061988 58.003151 245.52434 58.003151 C 248.083829 58.003151 250.808982 55.816402 252.772086 53.140948 C 253.948291 54.110076 255.339859 54.590498 256.82254 54.590498 C 260.028115 54.590498 262.537906 52.130405 264.882034 46.754649 Z M 252.515308 45.197419 C 251.976904 45.197419 251.496482 45.528744 251.397085 46.050582 C 251.01606 47.39245 250.90838 49.728295 251.496482 51.128146 C 249.740457 53.62137 247.50401 55.75842 245.52434 55.75842 C 243.818013 55.75842 243.180212 54.433118 243.180212 52.503147 C 243.180212 47.011426 246.004762 41.842748 247.379763 39.548318 C 248.936993 36.881148 250.858681 35.017442 252.879766 35.017442 C 254.702057 35.017442 256.027359 36.193647 256.027359 38.430095 C 256.027359 40.881904 255.016816 44.559617 253.360189 47.872872 C 253.409887 47.491848 253.409887 47.061125 253.583833 46.646968 C 253.790912 45.893202 253.252508 45.197419 252.515308 45.197419 Z M 285.573313 45.3051 C 285.407651 45.255401 285.250271 45.197419 285.092891 45.197419 C 284.662168 45.197419 284.289427 45.462479 284.082348 45.893202 C 280.827075 52.93387 278.91367 55.75842 276.395596 55.75842 C 275.277372 55.75842 274.79695 55.07092 274.79695 53.521973 C 274.79695 49.421819 278.963369 42.430851 278.963369 37.676329 C 278.963369 34.851779 277.795447 32.66503 273.95207 32.66503 C 272.196045 32.66503 270.539417 33.675573 268.99047 35.282502 L 269.421194 34.213977 C 269.677971 33.526477 269.14785 32.714729 268.352669 32.714729 C 267.872247 32.714729 267.441524 32.988073 267.284144 33.468495 C 265.205076 39.175577 261.842122 48.81715 259.067271 56.503903 C 258.860192 57.141704 259.174952 57.73809 259.754771 57.945169 C 260.342874 58.102548 260.980676 57.845771 261.20432 57.207969 L 264.931733 46.646968 C 266.646342 42.099525 270.696797 34.901478 273.95207 34.901478 C 276.022855 34.901478 276.726922 36.135665 276.726922 37.676329 C 276.726922 42.32317 272.560503 48.510674 272.560503 53.521973 C 272.560503 56.139444 273.84439 58.003151 276.395596 58.003151 C 280.031894 58.003151 282.533402 54.847275 286.161416 46.804348 C 286.219398 46.646968 286.269097 46.481305 286.269097 46.323926 C 286.269097 45.893202 285.995753 45.528744 285.573313 45.3051 Z M 285.573313 45.3051 " stroke="#5e17eb" stroke-width="1.999999" stroke-opacity="1" stroke-miterlimit="4"/></svg>